<mxfile host="app.diagrams.net" agent="Mozilla/5.0 (Windows NT 10.0; Win64; x64) AppleWebKit/537.36 (KHTML, like Gecko) Chrome/141.0.0.0 Safari/537.36" version="26.0.8">
  <diagram name="Trang-1" id="kMu7odMlj_t8A4w3IuMl">
    <mxGraphModel dx="1290" dy="617" grid="1" gridSize="10" guides="1" tooltips="1" connect="1" arrows="1" fold="1" page="1" pageScale="1" pageWidth="827" pageHeight="1169" math="0" shadow="0">
      <root>
        <mxCell id="0" />
        <mxCell id="1" parent="0" />
        <mxCell id="KqdS7qsnN5mw-7av_Yzr-9" style="edgeStyle=orthogonalEdgeStyle;rounded=0;orthogonalLoop=1;jettySize=auto;html=1;exitX=0.5;exitY=0;exitDx=0;exitDy=0;entryX=0.5;entryY=1;entryDx=0;entryDy=0;" edge="1" parent="1" source="KqdS7qsnN5mw-7av_Yzr-1" target="KqdS7qsnN5mw-7av_Yzr-6">
          <mxGeometry relative="1" as="geometry" />
        </mxCell>
        <mxCell id="KqdS7qsnN5mw-7av_Yzr-1" value="DAT_TOUR" style="rounded=0;whiteSpace=wrap;html=1;" vertex="1" parent="1">
          <mxGeometry x="320" y="280" width="120" height="60" as="geometry" />
        </mxCell>
        <mxCell id="KqdS7qsnN5mw-7av_Yzr-11" style="edgeStyle=orthogonalEdgeStyle;rounded=0;orthogonalLoop=1;jettySize=auto;html=1;entryX=0;entryY=0.5;entryDx=0;entryDy=0;" edge="1" parent="1" source="KqdS7qsnN5mw-7av_Yzr-2" target="KqdS7qsnN5mw-7av_Yzr-1">
          <mxGeometry relative="1" as="geometry" />
        </mxCell>
        <mxCell id="KqdS7qsnN5mw-7av_Yzr-2" value="KHACH_HANG" style="whiteSpace=wrap;html=1;" vertex="1" parent="1">
          <mxGeometry x="120" y="280" width="120" height="60" as="geometry" />
        </mxCell>
        <mxCell id="KqdS7qsnN5mw-7av_Yzr-7" value="" style="edgeStyle=orthogonalEdgeStyle;rounded=0;orthogonalLoop=1;jettySize=auto;html=1;" edge="1" parent="1" source="KqdS7qsnN5mw-7av_Yzr-4" target="KqdS7qsnN5mw-7av_Yzr-1">
          <mxGeometry relative="1" as="geometry" />
        </mxCell>
        <mxCell id="KqdS7qsnN5mw-7av_Yzr-4" value="TOUR" style="whiteSpace=wrap;html=1;" vertex="1" parent="1">
          <mxGeometry x="320" y="400" width="120" height="60" as="geometry" />
        </mxCell>
        <mxCell id="KqdS7qsnN5mw-7av_Yzr-13" style="edgeStyle=orthogonalEdgeStyle;rounded=0;orthogonalLoop=1;jettySize=auto;html=1;entryX=0;entryY=0.5;entryDx=0;entryDy=0;" edge="1" parent="1" source="KqdS7qsnN5mw-7av_Yzr-5" target="KqdS7qsnN5mw-7av_Yzr-4">
          <mxGeometry relative="1" as="geometry" />
        </mxCell>
        <mxCell id="KqdS7qsnN5mw-7av_Yzr-5" value="NHAN_VIEN" style="whiteSpace=wrap;html=1;" vertex="1" parent="1">
          <mxGeometry x="120" y="400" width="120" height="60" as="geometry" />
        </mxCell>
        <mxCell id="KqdS7qsnN5mw-7av_Yzr-6" value="THANH_TOAN" style="whiteSpace=wrap;html=1;" vertex="1" parent="1">
          <mxGeometry x="320" y="150" width="120" height="60" as="geometry" />
        </mxCell>
        <mxCell id="KqdS7qsnN5mw-7av_Yzr-8" value="&lt;div&gt;&lt;span style=&quot;background-color: transparent; color: light-dark(rgb(0, 0, 0), rgb(255, 255, 255));&quot;&gt;N&lt;/span&gt;&lt;/div&gt;&lt;div&gt;&lt;span style=&quot;background-color: transparent; color: light-dark(rgb(0, 0, 0), rgb(255, 255, 255));&quot;&gt;-&lt;/span&gt;&lt;/div&gt;&lt;div&gt;&lt;span style=&quot;background-color: transparent; color: light-dark(rgb(0, 0, 0), rgb(255, 255, 255));&quot;&gt;1&lt;/span&gt;&lt;/div&gt;" style="text;html=1;align=center;verticalAlign=middle;resizable=0;points=[];autosize=1;strokeColor=none;fillColor=none;" vertex="1" parent="1">
          <mxGeometry x="390" y="340" width="30" height="60" as="geometry" />
        </mxCell>
        <mxCell id="KqdS7qsnN5mw-7av_Yzr-10" value="1&amp;nbsp;&lt;div&gt;-&lt;/div&gt;&lt;div&gt;&amp;nbsp;1&lt;/div&gt;" style="text;html=1;align=center;verticalAlign=middle;resizable=0;points=[];autosize=1;strokeColor=none;fillColor=none;" vertex="1" parent="1">
          <mxGeometry x="399" y="213" width="30" height="60" as="geometry" />
        </mxCell>
        <mxCell id="KqdS7qsnN5mw-7av_Yzr-12" value="1 - N" style="text;html=1;align=center;verticalAlign=middle;resizable=0;points=[];autosize=1;strokeColor=none;fillColor=none;" vertex="1" parent="1">
          <mxGeometry x="250" y="270" width="50" height="30" as="geometry" />
        </mxCell>
        <mxCell id="KqdS7qsnN5mw-7av_Yzr-14" value="1 - N" style="text;html=1;align=center;verticalAlign=middle;resizable=0;points=[];autosize=1;strokeColor=none;fillColor=none;" vertex="1" parent="1">
          <mxGeometry x="250" y="390" width="50" height="30" as="geometry" />
        </mxCell>
      </root>
    </mxGraphModel>
  </diagram>
</mxfile>
